# xmcd
#
# Track frame offsets:
#	150
#	16060
#	32474
#	46237
#	65072
#
# Disc length: 1082 seconds
#
# Revision: 1
# Processed by: cddbd v1.5.1PL0 Copyright (c) Steve Scherf et al.
# Submitted via: EasyCDDAExtractor 7.0.0.1
#
DISCID=34043805
DTITLE=Andrew Barker
DYEAR=1900
DGENRE=
TTITLE0=Where Somebody Loves Me
TTITLE1=I Can See You Loving Me
TTITLE2=Feelin' Good
TTITLE3=If I Had Listened To My Heart
TTITLE4=Hard Call To Make
EXTD=
EXTT0=
EXTT1=
EXTT2=
EXTT3=
EXTT4=
PLAYORDER=
